<svg xmlns="http://www.w3.org/2000/svg" width="64" height="64" viewBox="0 0 64 64">
    <g fill="none" fill-rule="evenodd">
        <path fill="#00B3B3" d="M12 24C5.376 24 0 18.624 0 12S5.376 0 12 0h9c1.656 0 3 1.344 3 3v9c0 6.624-5.376 12-12 12"/>
        <path fill="#FFF" d="M9.047 13.881l2.538-4.396a1.77 1.77 0 0 0 .83 0l2.538 4.396c-.19.2-.335.445-.415.718H9.462a1.765 1.765 0 0 0-.415-.718m7.186-.549c-.143 0-.281.017-.414.049L13.28 8.984a1.767 1.767 0 1 0-2.56 0L8.18 13.381a1.767 1.767 0 1 0 1.28 2.218h5.077a1.767 1.767 0 1 0 1.695-2.267"/>
    </g>
</svg>
